<?xml version="1.0" encoding="UTF-8" standalone="no"?>
<svg
   xmlns:dc="http://purl.org/dc/elements/1.1/"
   xmlns:cc="http://creativecommons.org/ns#"
   xmlns:rdf="http://www.w3.org/1999/02/22-rdf-syntax-ns#"
   xmlns:svg="http://www.w3.org/2000/svg"
   xmlns="http://www.w3.org/2000/svg"
   xmlns:sodipodi="http://sodipodi.sourceforge.net/DTD/sodipodi-0.dtd"
   xmlns:inkscape="http://www.inkscape.org/namespaces/inkscape"
   width="28px"
   height="24px"
   viewBox="0 0 28 24"
   version="1.1"
   id="svg11"
   sodipodi:docname="ic-submenu-staking.svg"
   inkscape:version="0.92.5 (2060ec1f9f, 2020-04-08)">
  <metadata
     id="metadata17">
    <rdf:RDF>
      <cc:Work
         rdf:about="">
        <dc:format>image/svg+xml</dc:format>
        <dc:type
           rdf:resource="http://purl.org/dc/dcmitype/StillImage" />
      </cc:Work>
    </rdf:RDF>
  </metadata>
  <defs
     id="defs15" />
  <sodipodi:namedview
     pagecolor="#ffffff"
     bordercolor="#666666"
     borderopacity="1"
     objecttolerance="10"
     gridtolerance="10"
     guidetolerance="10"
     inkscape:pageopacity="0"
     inkscape:pageshadow="2"
     inkscape:window-width="1608"
     inkscape:window-height="986"
     id="namedview13"
     showgrid="false"
     inkscape:zoom="9.8333333"
     inkscape:cx="14.101695"
     inkscape:cy="11.491525"
     inkscape:window-x="72"
     inkscape:window-y="27"
     inkscape:window-maximized="1"
     inkscape:current-layer="svg11" />
  <!-- Generator: Sketch 52.6 (67491) - http://www.bohemiancoding.com/sketch -->
  <title
     id="title2">Sub Menu Locked Copy</title>
  <desc
     id="desc4">Created with Sketch.</desc>
  <g
     style="fill:none;fill-rule:evenodd;stroke:none;stroke-width:1"
     id="Group_8891"
     transform="translate(3)">
    <polygon
       id="Rectangle_4445"
       points="0,0 24,0 24,24 0,24 " />
  </g>
  <path
     d="m 24.448,11.966 1.259,-1.259 -1.414,-1.414 -1.259,1.259 C 21.58677,9.3454856 19.853009,8.532333 18,8.191 V 7 C 18,4.2385763 15.761424,2 13,2 10.238576,2 8,4.2385763 8,7 V 8 H 7 v 10 h 7.16 l 2,-2 H 9 v -6 h 8 v 5.16 l 2,-2 v -2.635 c 0.945077,0.334407 1.82758,0.824499 2.611,1.45 l -8.818,8.818 1.414,1.414 8.818,-8.818 C 24.30394,14.97938 25.0008,16.959168 25,19 v 1 h 2 v -1 c 0.0014,-2.571548 -0.901987,-5.061612 -2.552,-7.034 z M 16,8 H 10 V 7 c 0,-1.6568543 1.343146,-3 3,-3 1.656854,0 3,1.3431457 3,3 z"
     id="Path_18910"
     inkscape:connector-curvature="0"
     style="fill:#fefefe;fill-rule:nonzero;stroke:none;stroke-width:1;fill-opacity:1" />
</svg>
