<?xml version="1.0" encoding="UTF-8" standalone="no"?>
<svg
   xmlns:dc="http://purl.org/dc/elements/1.1/"
   xmlns:cc="http://creativecommons.org/ns#"
   xmlns:rdf="http://www.w3.org/1999/02/22-rdf-syntax-ns#"
   xmlns:svg="http://www.w3.org/2000/svg"
   xmlns="http://www.w3.org/2000/svg"
   xmlns:sodipodi="http://sodipodi.sourceforge.net/DTD/sodipodi-0.dtd"
   xmlns:inkscape="http://www.inkscape.org/namespaces/inkscape"
   xml:space="preserve"
   width="89.949402mm"
   height="55.530201mm"
   style="clip-rule:evenodd;fill-rule:evenodd;image-rendering:optimizeQuality;shape-rendering:geometricPrecision;text-rendering:geometricPrecision"
   viewBox="0 0 8994.9402 5553.0201"
   version="1.1"
   id="svg29"
   sodipodi:docname="img-logo-pivx.svg"
   inkscape:version="0.92.5 (2060ec1f9f, 2020-04-08)"><metadata
     id="metadata33"><rdf:RDF><cc:Work
         rdf:about=""><dc:format>image/svg+xml</dc:format><dc:type
           rdf:resource="http://purl.org/dc/dcmitype/StillImage" /><dc:title></dc:title></cc:Work></rdf:RDF></metadata><sodipodi:namedview
     pagecolor="#ffffff"
     bordercolor="#666666"
     borderopacity="1"
     objecttolerance="10"
     gridtolerance="10"
     guidetolerance="10"
     inkscape:pageopacity="0"
     inkscape:pageshadow="2"
     inkscape:window-width="1608"
     inkscape:window-height="986"
     id="namedview31"
     showgrid="false"
     inkscape:zoom="0.63334635"
     inkscape:cx="168.8897"
     inkscape:cy="104.76246"
     inkscape:window-x="72"
     inkscape:window-y="27"
     inkscape:window-maximized="1"
     inkscape:current-layer="svg29"
     fit-margin-left="4"
     fit-margin-right="4"
     fit-margin-top="4"
     fit-margin-bottom="4" /><defs
     id="defs4"><style
       id="style2"><![CDATA[
    .str0 {stroke:#2B2A29;stroke-width:10;stroke-miterlimit:22.9256}
    .str1 {stroke:#FEFEFE;stroke-width:7.62;stroke-miterlimit:22.9256}
    .fil2 {fill:#FEFEFE}
    .fil0 {fill:#FEFEFE}
    .fil1 {fill:#016001}
    .fil3 {fill:#FEFEFE;fill-rule:nonzero}
    .fil4 {fill:#016001;fill-rule:nonzero}
   ]]></style></defs><circle
     style="fill:#016001"
     id="circle8"
     class="fil1"
     r="1857.5601"
     cy="2257.5601"
     cx="4497.4702" /><path
     style="fill:#fefefe;stroke:#fefefe;stroke-width:7.61999989;stroke-miterlimit:22.92560005"
     inkscape:connector-curvature="0"
     id="path10"
     class="fil2 str1"
     d="m 4163.1,879.56017 h 229.31 V 1498.3402 H 4163.1 Z m 229.31,2138.04003 v 620.5 H 4163.1 v -620.5 z M 4594.75,879.56017 h 229.32 v 725.59003 l -45.99,-9.04 -89.9,-25.28 c -16.11,0 -60.77,-1.64 -93.43,-0.48 z m 229.32,2086.76003 v 671.78 h -229.32 v -671.78 z" /><path
     style="fill:#fefefe;fill-rule:nonzero"
     inkscape:connector-curvature="0"
     id="path12"
     class="fil3"
     d="m 4576.89,3311.3502 c -158.84,0 -306.4,-25.99 -442.69,-77.95 -136.29,-51.97 -254.44,-126 -354.45,-222.08 -100.01,-96.09 -177.96,-208.85 -233.85,-338.28 -55.89,-129.42 -83.83,-271.59 -83.83,-426.51 0,-154.92 27.94,-297.09 83.83,-426.52 55.89,-129.42 134.33,-242.18 235.32,-338.27 100.99,-96.09 219.14,-170.12 354.45,-222.08 135.31,-51.97 283.36,-77.95 444.16,-77.95 178.45,0 339.75,30.88 483.88,92.66 144.13,61.77 265.22,152.46 363.27,272.08 l -305.91,282.39 c -70.6,-80.4 -149.04,-140.7 -235.32,-180.9 -86.28,-40.21 -180.41,-60.31 -282.38,-60.31 -96.09,0 -184.34,15.69 -264.74,47.07 -80.4,31.37 -150.01,76.48 -208.84,135.31 -58.83,58.83 -104.43,128.44 -136.78,208.84 -32.36,80.4 -48.54,169.63 -48.54,267.68 0,98.05 16.18,187.27 48.54,267.67 32.35,80.4 77.95,150.02 136.78,208.85 58.83,58.83 128.44,103.93 208.84,135.31 80.4,31.37 168.65,47.06 264.74,47.06 101.97,0 196.1,-20.1 282.38,-60.3 86.28,-40.2 164.72,-101.48 235.32,-183.84 l 305.91,282.38 c -98.05,119.62 -219.14,210.81 -363.27,273.56 -144.13,62.75 -306.41,94.13 -486.82,94.13 z" /><path
     style="fill:#016001;fill-rule:nonzero"
     inkscape:connector-curvature="0"
     id="path14"
     class="fil4"
     d="m 720.89,5153.0202 c -45.72,0 -88.2,-7.48 -127.43,-22.44 -39.22,-14.95 -73.23,-36.26 -102.02,-63.92 -28.79,-27.66 -51.22,-60.11 -67.31,-97.37 -16.09,-37.25 -24.13,-78.17 -24.13,-122.76 0,-44.6 8.04,-85.52 24.13,-122.77 16.09,-37.26 38.66,-69.71 67.73,-97.37 29.07,-27.66 63.08,-48.96 102.03,-63.92 38.94,-14.96 81.56,-22.44 127.84,-22.44 51.37,0 97.8,8.89 139.28,26.67 41.49,17.78 76.34,43.89 104.57,78.32 l -88.06,81.28 c -20.32,-23.14 -42.9,-40.5 -67.73,-52.07 -24.84,-11.57 -51.93,-17.36 -81.28,-17.36 -27.66,0 -53.06,4.52 -76.2,13.55 -23.14,9.03 -43.18,22.01 -60.12,38.94 -16.93,16.94 -30.05,36.98 -39.37,60.12 -9.31,23.14 -13.97,48.82 -13.97,77.05 0,28.22 4.66,53.9 13.97,77.04 9.32,23.14 22.44,43.18 39.37,60.12 16.94,16.93 36.98,29.91 60.12,38.94 23.14,9.03 48.54,13.55 76.2,13.55 29.35,0 56.44,-5.79 81.28,-17.36 24.83,-11.57 47.41,-29.21 67.73,-52.91 l 88.06,81.28 c -28.23,34.43 -63.08,60.67 -104.57,78.74 -41.48,18.06 -88.19,27.09 -140.12,27.09 z" /><path
     style="fill:#016001;fill-rule:nonzero"
     inkscape:connector-curvature="0"
     class="fil4"
     d="m 1331.34,5152.1702 c -45.72,0 -88.48,-7.48 -128.27,-22.43 -39.8,-14.96 -74.23,-36.27 -103.3,-63.93 -29.07,-27.65 -51.36,-60.25 -66.88,-97.79 -15.53,-37.53 -23.57,-78.03 -24.13,-121.49 0,-44.03 8.04,-84.53 24.13,-121.5 16.08,-36.97 38.66,-69.43 67.73,-97.37 29.07,-27.94 63.36,-49.53 102.87,-64.77 39.51,-15.24 82.13,-22.58 127.85,-22.01 47.41,-0.57 90.73,6.77 129.96,22.01 39.23,15.24 73.38,36.69 102.45,64.35 29.07,27.66 51.65,59.97 67.73,96.94 16.09,36.97 23.85,77.75 23.29,122.35 0.56,44.02 -7.2,84.8 -23.29,122.34 -16.08,37.54 -38.66,69.99 -67.73,97.37 -29.07,27.37 -63.22,48.68 -102.45,63.92 -39.23,15.24 -82.55,22.58 -129.96,22.01 z m 0,-115.14 c 27.09,-0.57 51.93,-5.37 74.51,-14.4 22.57,-9.03 42.19,-22.01 58.84,-38.94 16.65,-16.94 29.63,-36.98 38.95,-60.12 9.31,-23.14 14.25,-48.82 14.81,-77.04 -0.56,-28.23 -5.5,-53.91 -14.81,-77.05 -9.32,-23.14 -22.3,-43.18 -38.95,-60.12 -16.65,-16.93 -36.27,-30.05 -58.84,-39.37 -22.58,-9.31 -47.42,-13.97 -74.51,-13.97 -25.97,0.57 -50.24,5.37 -72.82,14.4 -22.57,9.03 -42.19,22.01 -58.84,38.94 -16.65,16.94 -29.63,36.84 -38.95,59.7 -9.31,22.86 -14.25,48.68 -14.81,77.47 0.56,27.65 5.5,53.19 14.81,76.62 9.32,23.42 22.3,43.6 38.95,60.54 16.65,16.93 36.13,30.05 58.42,39.37 22.3,9.31 46.71,13.97 73.24,13.97 z"
     id="1" /><polygon
     style="fill:#016001;fill-rule:nonzero"
     class="fil4"
     points="5700.16,5246.58 5699.31,4819.01 5834.78,4819.01 5834.78,5411.68 5722.17,5411.68 5371.65,4984.96 5426.68,4984.11 5426.68,5411.68 5291.21,5411.68 5291.21,4819.01 5404.67,4819.01 5754.34,5245.73 "
     id="2"
     transform="translate(-3531.46,-268.81983)" /><path
     style="fill:#016001;fill-rule:nonzero"
     inkscape:connector-curvature="0"
     class="fil4"
     d="m 2727.5,5153.0202 c -45.72,0 -88.2,-7.48 -127.43,-22.44 -39.22,-14.95 -73.23,-36.26 -102.02,-63.92 -28.79,-27.66 -51.22,-60.11 -67.31,-97.37 -16.09,-37.25 -24.13,-78.17 -24.13,-122.76 0,-44.6 8.04,-85.52 24.13,-122.77 16.09,-37.26 38.66,-69.71 67.73,-97.37 29.07,-27.66 63.08,-48.96 102.03,-63.92 38.94,-14.96 81.56,-22.44 127.84,-22.44 51.37,0 97.8,8.89 139.28,26.67 41.49,17.78 76.34,43.89 104.57,78.32 l -88.06,81.28 c -20.32,-23.14 -42.9,-40.5 -67.73,-52.07 -24.84,-11.57 -51.93,-17.36 -81.28,-17.36 -27.66,0 -53.06,4.52 -76.2,13.55 -23.14,9.03 -43.18,22.01 -60.12,38.94 -16.93,16.94 -30.05,36.98 -39.37,60.12 -9.31,23.14 -13.97,48.82 -13.97,77.05 0,28.22 4.66,53.9 13.97,77.04 9.32,23.14 22.44,43.18 39.37,60.12 16.94,16.93 36.98,29.91 60.12,38.94 23.14,9.03 48.54,13.55 76.2,13.55 29.35,0 56.44,-5.79 81.28,-17.36 24.83,-11.57 47.41,-29.21 67.73,-52.91 l 88.06,81.28 c -28.23,34.43 -63.08,60.67 -104.57,78.74 -41.48,18.06 -88.19,27.09 -140.12,27.09 z"
     id="3" /><path
     style="fill:#016001;fill-rule:nonzero"
     inkscape:connector-curvature="0"
     class="fil4"
     d="m 3337.95,5152.1702 c -45.72,0 -88.48,-7.48 -128.27,-22.43 -39.8,-14.96 -74.23,-36.27 -103.3,-63.93 -29.07,-27.65 -51.36,-60.25 -66.88,-97.79 -15.53,-37.53 -23.57,-78.03 -24.13,-121.49 0,-44.03 8.04,-84.53 24.13,-121.5 16.08,-36.97 38.66,-69.43 67.73,-97.37 29.07,-27.94 63.36,-49.53 102.87,-64.77 39.51,-15.24 82.13,-22.58 127.85,-22.01 47.41,-0.57 90.73,6.77 129.96,22.01 39.23,15.24 73.38,36.69 102.45,64.35 29.07,27.66 51.65,59.97 67.73,96.94 16.09,36.97 23.85,77.75 23.29,122.35 0.56,44.02 -7.2,84.8 -23.29,122.34 -16.08,37.54 -38.66,69.99 -67.73,97.37 -29.07,27.37 -63.22,48.68 -102.45,63.92 -39.23,15.24 -82.55,22.58 -129.96,22.01 z m 0,-115.14 c 27.09,-0.57 51.93,-5.37 74.51,-14.4 22.57,-9.03 42.19,-22.01 58.84,-38.94 16.65,-16.94 29.63,-36.98 38.95,-60.12 9.31,-23.14 14.25,-48.82 14.81,-77.04 -0.56,-28.23 -5.5,-53.91 -14.81,-77.05 -9.32,-23.14 -22.3,-43.18 -38.95,-60.12 -16.65,-16.93 -36.27,-30.05 -58.84,-39.37 -22.58,-9.31 -47.42,-13.97 -74.51,-13.97 -25.97,0.57 -50.24,5.37 -72.82,14.4 -22.57,9.03 -42.19,22.01 -58.84,38.94 -16.65,16.94 -29.63,36.84 -38.95,59.7 -9.31,22.86 -14.25,48.68 -14.81,77.47 0.56,27.65 5.5,53.19 14.81,76.62 9.32,23.42 22.3,43.6 38.95,60.54 16.65,16.93 36.13,30.05 58.42,39.37 22.3,9.31 46.71,13.97 73.24,13.97 z"
     id="4" /><path
     style="fill:#016001;fill-rule:nonzero"
     inkscape:connector-curvature="0"
     class="fil4"
     d="m 3766.36,5142.8602 v -592.67 h 256.54 c 53.06,0 98.78,8.61 137.17,25.82 38.38,17.22 68.01,41.91 88.9,74.09 20.88,32.17 31.32,70.55 31.32,115.15 0,44.02 -10.44,81.98 -31.32,113.87 -20.89,31.89 -50.52,56.31 -88.9,73.24 -38.39,16.93 -84.11,25.4 -137.17,25.4 h -180.34 l 60.96,-60.11 v 225.21 z m 376.77,0 -148.17,-215.05 h 146.48 l 149.86,215.05 z m -239.61,-209.97 -60.96,-64.35 h 172.72 c 42.34,0 73.95,-9.17 94.83,-27.52 20.89,-18.34 31.33,-43.6 31.33,-75.77 0,-32.74 -10.44,-58.14 -31.33,-76.21 -20.88,-18.06 -52.49,-27.09 -94.83,-27.09 h -172.72 l 60.96,-65.19 z"
     id="5" /><path
     style="fill:#016001;fill-rule:nonzero"
     inkscape:connector-curvature="0"
     class="fil4"
     d="m 4388.66,5142.8602 v -592.67 h 269.24 c 64.35,0 121.08,12.28 170.19,36.83 49.1,24.55 87.48,58.84 115.14,102.87 27.66,44.03 41.21,96.24 40.64,156.64 0.57,59.83 -12.98,111.9 -40.64,156.21 -27.66,44.31 -66.04,78.74 -115.14,103.29 -49.11,24.55 -105.84,36.83 -170.19,36.83 z m 137.16,-112.61 h 125.31 c 39.51,0.57 73.8,-6.77 102.87,-22.01 29.07,-15.24 51.65,-36.69 67.74,-64.35 16.08,-27.66 24.41,-60.11 24.97,-97.36 -0.56,-37.82 -8.89,-70.42 -24.97,-97.79 -16.09,-27.38 -38.67,-48.69 -67.74,-63.93 -29.07,-15.24 -63.36,-22.58 -102.87,-22.01 l -125.31,-0.85 z"
     id="6" /><polygon
     style="fill:#016001;fill-rule:nonzero"
     class="fil4"
     points="8619.47,5411.68 8619.47,4819.01 8756.63,4819.01 8756.63,5411.68 "
     id="7"
     transform="translate(-3531.46,-268.81983)" /><path
     style="fill:#016001;fill-rule:nonzero"
     inkscape:connector-curvature="0"
     class="fil4"
     d="m 5287.83,5142.8602 264.16,-592.67 h 135.47 l 265.01,592.67 h -143.94 l -216.75,-523.24 h 54.19 l -217.59,523.24 z m 132.08,-127 36.41,-104.14 h 304.8 l 37.25,104.14 z"
     id="8" /><path
     style="fill:#016001;fill-rule:nonzero"
     inkscape:connector-curvature="0"
     class="fil4"
     d="m 6537.52,5153.0202 c -45.72,0 -88.2,-7.48 -127.43,-22.44 -39.22,-14.95 -73.23,-36.26 -102.02,-63.92 -28.79,-27.66 -51.22,-60.11 -67.31,-97.37 -16.09,-37.25 -24.13,-78.17 -24.13,-122.76 0,-44.6 8.04,-85.52 24.13,-122.77 16.09,-37.26 38.66,-69.71 67.73,-97.37 29.07,-27.66 63.08,-48.96 102.03,-63.92 38.94,-14.96 81.56,-22.44 127.84,-22.44 51.37,0 97.8,8.89 139.28,26.67 41.49,17.78 76.34,43.89 104.57,78.32 l -88.06,81.28 c -20.32,-23.14 -42.9,-40.5 -67.73,-52.07 -24.84,-11.57 -51.93,-17.36 -81.28,-17.36 -27.66,0 -53.06,4.52 -76.2,13.55 -23.14,9.03 -43.18,22.01 -60.12,38.94 -16.93,16.94 -30.05,36.98 -39.37,60.12 -9.31,23.14 -13.97,48.82 -13.97,77.05 0,28.22 4.66,53.9 13.97,77.04 9.32,23.14 22.44,43.18 39.37,60.12 16.94,16.93 36.98,29.91 60.12,38.94 23.14,9.03 48.54,13.55 76.2,13.55 29.35,0 56.44,-5.79 81.28,-17.36 24.83,-11.57 47.41,-29.21 67.73,-52.91 l 88.06,81.28 c -28.23,34.43 -63.08,60.67 -104.57,78.74 -41.48,18.06 -88.19,27.09 -140.12,27.09 z"
     id="9" /><path
     style="fill:#016001;fill-rule:nonzero"
     inkscape:connector-curvature="0"
     class="fil4"
     d="m 6784.75,5142.8602 264.16,-592.67 h 135.47 l 265.01,592.67 h -143.94 l -216.75,-523.24 h 54.19 l -217.59,523.24 z m 132.08,-127 36.41,-104.14 h 304.8 l 37.25,104.14 z"
     id="10" /><path
     style="fill:#016001;fill-rule:nonzero"
     inkscape:connector-curvature="0"
     class="fil4"
     d="m 7705.93,5153.0202 c -47.42,0 -92.85,-6.35 -136.32,-19.05 -43.46,-12.7 -78.45,-29.21 -104.98,-49.53 l 46.56,-103.29 c 25.4,18.06 55.46,32.88 90.17,44.45 34.72,11.57 69.85,17.35 105.41,17.35 27.1,0 48.97,-2.68 65.62,-8.04 16.65,-5.36 28.93,-12.84 36.83,-22.44 7.9,-9.59 11.85,-20.6 11.85,-33.02 0,-15.8 -6.2,-28.36 -18.62,-37.67 -12.42,-9.32 -28.79,-16.94 -49.11,-22.86 -20.32,-5.93 -42.76,-11.58 -67.31,-16.94 -24.55,-5.36 -49.11,-11.99 -73.66,-19.89 -24.55,-7.91 -46.99,-18.07 -67.31,-30.48 -20.32,-12.42 -36.83,-28.79 -49.53,-49.11 -12.7,-20.32 -19.05,-46.29 -19.05,-77.89 0,-33.87 9.17,-64.78 27.52,-92.72 18.34,-27.94 46,-50.23 82.97,-66.88 36.97,-16.65 83.4,-24.98 139.28,-24.98 37.25,0 73.94,4.38 110.06,13.12 36.13,8.75 68.02,21.88 95.68,39.37 l -42.33,104.14 c -27.66,-15.8 -55.32,-27.51 -82.98,-35.13 -27.66,-7.62 -54.75,-11.43 -81.28,-11.43 -26.53,0 -48.26,3.1 -65.19,9.31 -16.94,6.21 -29.07,14.25 -36.41,24.13 -7.34,9.88 -11.01,21.31 -11.01,34.29 0,15.24 6.21,27.52 18.63,36.83 12.42,9.32 28.79,16.79 49.11,22.44 20.32,5.64 42.75,11.29 67.31,16.93 24.55,5.65 49.1,12.14 73.66,19.48 24.55,7.33 46.99,17.21 67.31,29.63 20.32,12.42 36.83,28.79 49.53,49.11 12.7,20.32 19.05,46 19.05,77.04 0,33.31 -9.31,63.79 -27.94,91.44 -18.63,27.66 -46.43,49.96 -83.4,66.89 -36.97,16.93 -83.68,25.4 -140.12,25.4 z"
     id="11" /><path
     style="fill:#016001;fill-rule:nonzero"
     inkscape:connector-curvature="0"
     class="fil4"
     d="m 8457.78,4550.1902 h 136.31 l 0.85,592.67 h -136.32 z m -269.25,592.67 h -136.31 l -0.85,-592.67 h 136.32 z m 280.25,-243.84 -290.41,0.85 -0.84,-115.15 290.41,-0.85 z"
     id="12" /></svg>